<svg width="24" height="24" viewBox="0 0 24 24" fill="none" xmlns="http://www.w3.org/2000/svg">
<path d="M11.9999 23.4618L11.1339 22.8498C9.99387 22.0438 -0.000135449 14.7828 -0.000135449 8.14976C-0.0647952 6.29125 0.608933 4.48272 1.87378 3.1195C3.13863 1.75627 4.89173 0.949222 6.74987 0.874756C7.77553 0.884835 8.78458 1.13492 9.69623 1.60499C10.6079 2.07505 11.3968 2.75205 11.9999 3.58176C12.6029 2.75205 13.3918 2.07505 14.3035 1.60499C15.2152 1.13492 16.2242 0.884835 17.2499 0.874756C19.108 0.949222 20.8611 1.75627 22.126 3.1195C23.3908 4.48272 24.0645 6.29125 23.9999 8.14976C23.9999 14.7828 14.0059 22.0438 12.8659 22.8498L11.9999 23.4618ZM6.74987 3.87476C5.68783 3.95 4.69835 4.44114 3.99625 5.24154C3.29415 6.04193 2.93611 7.08697 2.99986 8.14976C2.99986 12.0658 8.86287 17.3598 11.9999 19.7608C15.1369 17.3608 20.9999 12.0658 20.9999 8.14976C21.0636 7.08697 20.7056 6.04193 20.0035 5.24154C19.3014 4.44114 18.3119 3.95 17.2499 3.87476C16.1878 3.95 15.1983 4.44114 14.4962 5.24154C13.7941 6.04193 13.4361 7.08697 13.4999 8.14976H10.4999C10.5636 7.08697 10.2056 6.04193 9.50348 5.24154C8.80138 4.44114 7.8119 3.95 6.74987 3.87476V3.87476Z" fill="#374957"/>
</svg>
