<svg width="24" height="24" viewBox="0 0 24 24" fill="none" xmlns="http://www.w3.org/2000/svg">
<g clip-path="url(#clip0_122_7)">
<mask id="mask0_122_7" style="mask-type:luminance" maskUnits="userSpaceOnUse" x="0" y="0" width="24" height="24">
<path d="M24 0H0V24H24V0Z" fill="white"/>
</mask>
<g mask="url(#mask0_122_7)">
<path d="M11 3H3V13H11V3Z" fill="#FF6464"/>
<path d="M21 3H13V13H21V3Z" fill="#FF6464"/>
<path d="M16 9H8V19H16V9Z" fill="#FF6464"/>
<path d="M19 8H12V17H19V8Z" fill="#FF6464"/>
<path d="M14 10H9V20H14V10Z" fill="#FF6464"/>
<path d="M13 7H5V17H13V7Z" fill="#FF6464"/>
<path d="M14 6H6V16H14V6Z" fill="#FF6464"/>
<path d="M14.5326 2.0494C15.3712 1.61701 16.299 1.38608 17.2423 1.37488C18.9638 1.44716 20.5873 2.19629 21.7594 3.45959C22.9344 4.72594 23.5602 6.40595 23.5002 8.13238L23.4999 8.14107V8.14977C23.4999 9.68583 22.9195 11.2943 21.9893 12.8784C21.0612 14.4591 19.8046 15.9822 18.5 17.3382C15.8909 20.0502 13.1368 22.0459 12.5773 22.4414L11.9999 22.8495L11.4225 22.4415C10.8631 22.046 8.1088 20.0502 5.49969 17.3382C4.19514 15.9822 2.93848 14.4591 2.01041 12.8784C1.08028 11.2943 0.499865 9.68583 0.499865 8.14977V8.14107L0.499562 8.13238C0.439497 6.40595 1.06535 4.72594 2.24031 3.45959C3.41245 2.19629 5.03594 1.44716 6.75741 1.37488C7.70072 1.38608 8.62851 1.61701 9.46709 2.0494C10.3094 2.48369 11.0383 3.10916 11.5954 3.87573L11.9999 4.43221L12.4043 3.87573C12.9615 3.10916 13.6904 2.48369 14.5326 2.0494ZM6.7852 3.37602L6.74987 3.37351L6.71453 3.37602C5.52115 3.46057 4.4093 4.01245 3.62037 4.91183C2.83473 5.80746 2.43248 6.9757 2.49989 8.16477C2.50359 9.2577 2.91089 10.4035 3.52724 11.52C4.14927 12.6469 5.00483 13.7808 5.94799 14.8535C7.83425 16.9989 10.1111 18.9448 11.696 20.1578L11.9998 20.3904L12.3037 20.1579C13.8886 18.9453 16.1655 16.9994 18.0518 14.8539C18.9949 13.7811 19.8505 12.6471 20.4725 11.5202C21.0888 10.4035 21.4961 9.25771 21.4998 8.16478C21.5673 6.97571 21.165 5.80746 20.3794 4.91183C19.5904 4.01245 18.4786 3.46057 17.2852 3.37602L17.2499 3.37351L17.2145 3.37602C16.0212 3.46057 14.9093 4.01245 14.1204 4.91183C13.4486 5.67763 13.0572 6.64274 12.9999 7.64977H10.9998C10.9426 6.64274 10.5511 5.67763 9.87936 4.91183C9.09043 4.01245 7.97858 3.46057 6.7852 3.37602Z" fill="#FF6464" stroke="#FF6464"/>
</g>
</g>
<defs>
<clipPath id="clip0_122_7">
<rect width="24" height="24" fill="white"/>
</clipPath>
</defs>
</svg>
